<svg xmlns="http://www.w3.org/2000/svg" viewBox="0 0 300 60.33"><title>binance</title><path d="M13.609,30.165,6.837,36.939,0,30.165,6.835,23.33ZM30.165,13.609,41.829,25.273l6.837-6.832L30.165,0l-18.5,18.5L18.5,25.333ZM53.5,23.33,46.72,30.165,53.555,37l6.833-6.835ZM30.165,46.72,18.5,35l-6.837,6.835,18.5,18.5,18.5-18.5L41.829,35Zm0-9.778L37,30.105l-6.835-6.772L23.33,30.165l6.835,6.774Zm71.878.7V37.53c0-4.419-2.358-6.659-6.186-8.132a7.7,7.7,0,0,0,4.358-7.129v-.115c0-5.186-4.183-8.545-10.9-8.545H73.939V46.663H89.67c7.481.057,12.373-3.007,12.373-9.015ZM92.968,23.509c0,2.473-2,3.474-5.243,3.474H81.01V19.972H88.2c3.064,0,4.771,1.236,4.771,3.418Zm1.828,13.2c0,2.473-1.943,3.594-5.128,3.594H81.01V33.051h8.424c3.713,0,5.362,1.357,5.362,3.594v.061ZM117.3,46.72V13.609H110V46.663H117.3v.057Zm39.122,0V13.609h-7.19V34L133.739,13.609h-6.717V46.663h7.189V25.688L150.236,46.72h6.187Zm40.295,0L182.523,13.433h-6.714l-14.2,33.287h7.484l3-7.423H186.06l3,7.423h7.654ZM183.463,32.875h-8.778L179.1,22.154Zm47.96,13.845V13.609h-7.19V34L208.739,13.609h-6.717V46.663h7.189V25.688L225.236,46.72h6.187Zm37.527-5.361L264.3,36.706c-2.594,2.355-4.891,3.886-8.72,3.886-5.656,0-9.6-4.713-9.6-10.369v-.176c0-5.656,4-10.309,9.6-10.309,3.3,0,5.892,1.413,8.484,3.71l4.653-5.362c-3.062-3-6.775-5.125-13.019-5.125a16.844,16.844,0,0,0-17.262,17.086v.118A17.482,17.482,0,0,0,268.95,41.359ZM300,46.72V40.24H282.029V33.287h15.613v-6.48H282.029V20.09h17.735V13.609H274.842V46.663H300v.057Z" fill="#f0b90c"/></svg>