<svg xmlns="http://www.w3.org/2000/svg" viewBox="0 0 600.1 103.2"><title>coinmarketcap</title><path d="M88.4,61.7a5.481,5.481,0,0,1-5.5.4c-2-1.2-3.2-3.9-3.2-7.6V43.2c0-5.4-2.1-9.3-5.7-10.3-6.1-1.8-10.7,5.7-12.4,8.5L50.8,58.7V37.4c-.1-4.9-1.7-7.8-4.7-8.7-2-.6-5-.3-7.9,4.1L14.1,71.4A42.663,42.663,0,0,1,9.2,51.6C9.2,28.3,27.9,9.4,50.8,9.4S92.4,28.3,92.4,51.6v.2c.2,4.5-1.2,8.1-4,9.9Zm13.2-10.1h0v-.2C101.5,23.1,78.7,0,50.8,0,22.8,0,0,23.1,0,51.6,0,80,22.8,103.2,50.8,103.2A49.918,49.918,0,0,0,85.3,89.4,4.672,4.672,0,0,0,79,82.5l-.1.1a41.094,41.094,0,0,1-59.2-2.7L41.4,45.1V61.2c0,7.7,3,10.2,5.5,10.9s6.3.2,10.4-6.3L69.2,46.5a11.067,11.067,0,0,1,1.1-1.6v9.8c0,7.2,2.9,13,7.9,15.8a14.531,14.531,0,0,0,14.9-.6C98.9,66.1,102,59.5,101.6,51.6ZM172.4,34a5.015,5.015,0,0,1,2.3,3.9,4.42,4.42,0,0,1-4.3,4.4,7.58,7.58,0,0,1-1.6-.3,16.434,16.434,0,0,0-9.7-3.3c-8.5,0-14.3,6.9-14.3,15.5s5.9,15.4,14.3,15.4a15.532,15.532,0,0,0,10.8-4.4,4.376,4.376,0,0,1,2.5-.8,4.055,4.055,0,0,1,4.1,4.1,4.257,4.257,0,0,1-2,3.5,23.737,23.737,0,1,1-15.3-42A22.6,22.6,0,0,1,172.4,34Zm23.8,10a16.608,16.608,0,0,1,16.3,16.8c0,9.2-7.5,17.1-16.3,17.1a17.2,17.2,0,0,1-17-17.1A16.944,16.944,0,0,1,196.2,44Zm-.1,25.6c3.9,0,7.2-3.7,7.2-8.7s-3.3-8.2-7.2-8.2c-4.2,0-7.7,3.1-7.7,8.2C188.4,65.8,191.9,69.6,196.1,69.6Zm22,3.1V49.1a4.61,4.61,0,0,1,4.6-4.7,4.674,4.674,0,0,1,4.6,4.7V72.7a4.674,4.674,0,0,1-4.6,4.7A4.741,4.741,0,0,1,218.1,72.7Zm-.7-37.2a5.381,5.381,0,0,1,5.3-5.5,5.463,5.463,0,0,1,5.4,5.5,5.35,5.35,0,1,1-10.7,0Zm27.5,24.4V72.7a4.6,4.6,0,1,1-9.2,0V48a3.55,3.55,0,1,1,7.1,0,13.345,13.345,0,0,1,10.1-4c9.2,0,13.3,6.9,13.3,14.8V72.7a4.6,4.6,0,1,1-9.2,0V59.9c0-4-.5-7.4-6.3-7.4-4.1,0-5.8,3.4-5.8,7.4ZM296,64.8a2.98,2.98,0,0,1-2.4-1.2L282.9,52V72.7a4.6,4.6,0,1,1-9.2,0v-41a1.948,1.948,0,0,1,1.7-1.2,3.219,3.219,0,0,1,2,1.2l17.1,19.2a2.232,2.232,0,0,0,1.5.9,2.457,2.457,0,0,0,1.5-.9l17.1-19.2a2.975,2.975,0,0,1,2-1.2,1.743,1.743,0,0,1,1.7,1.2v41a4.61,4.61,0,0,1-4.6,4.7,4.674,4.674,0,0,1-4.6-4.7V52L298.4,63.6a3.69,3.69,0,0,1-2.4,1.2Zm44.2,4.8c4.1,0,7.6-3.7,7.6-8.7s-3.6-8.3-7.6-8.3-7.3,3.4-7.3,8.3C332.9,65.7,336.1,69.6,340.2,69.6Zm9.8,4.2-.2-1.1c-1.8,3.5-7.5,5.1-11.1,5.1-8.6,0-15-7.8-15-17.1,0-9.2,6.5-16.8,15.5-16.8A14.387,14.387,0,0,1,349.9,49l.2-1.1a3.5,3.5,0,0,1,3.5-3.6,3.65,3.65,0,0,1,3.6,3.6V73.7a3.585,3.585,0,0,1-3.6,3.6,3.443,3.443,0,0,1-3.6-3.5Zm32.5-21.3h-1c-5.8.3-6.9,3.6-6.9,7.4V72.7a4.6,4.6,0,1,1-9.2,0V48a3.55,3.55,0,1,1,7.1,0c3.4-3.2,6.2-3.9,9-4h.9a4.313,4.313,0,0,1,4.2,4.3,4.2,4.2,0,0,1-4.1,4.2Zm35.5,18a4.394,4.394,0,0,1,.7,2.2,4.793,4.793,0,0,1-4.6,4.6c-1.6,0-3-1.2-4.1-2.6L399.4,62.4V72.6a4.6,4.6,0,1,1-9.2,0V35.1a4.6,4.6,0,1,1,9.2,0V58.5L410,46.8c1.1-1.2,2.4-2.5,4-2.5a4.6,4.6,0,0,1,4.4,4.5,3.936,3.936,0,0,1-.6,2.1l-8.4,9.2L418,70.5Zm18-17.9c-2.5,0-6.6,1.3-6.6,5.2h13.3c-.1-3.9-4.3-5.2-6.7-5.2Zm12,11.1H429.4c0,5.5,5.3,6.4,7.6,6.4a14.927,14.927,0,0,0,6-1.2,4.527,4.527,0,0,1,2.4-.7,3.778,3.778,0,0,1,3.7,3.8,4.052,4.052,0,0,1-2,3.3c-2.8,2.1-6.5,2.6-10,2.6-9.3,0-17-5-17-16.7,0-9.2,4.7-17.2,15.7-17.2,8.9,0,15.6,5.8,15.8,16.1a3.65,3.65,0,0,1-3.6,3.6Zm25.6,14.1h-2.5c-7,0-11.1-3.1-11.1-14V52.5h-2.4a4.253,4.253,0,0,1,0-8.5H460V35.3a4.61,4.61,0,0,1,4.6-4.7,4.674,4.674,0,0,1,4.6,4.7V44H473a4.229,4.229,0,0,1,4.1,4.3,4.347,4.347,0,0,1-4.1,4.2h-3.8V62c0,6.3.3,7.6,3.1,7.6h1.3a4.118,4.118,0,0,1,4.1,4.1,4.185,4.185,0,0,1-4.1,4.1ZM518.1,34a5.015,5.015,0,0,1,2.3,3.9,4.42,4.42,0,0,1-4.3,4.4,7.58,7.58,0,0,1-1.6-.3,16.434,16.434,0,0,0-9.7-3.3c-8.5,0-14.3,6.9-14.3,15.5s5.9,15.4,14.3,15.4a15.532,15.532,0,0,0,10.8-4.4,4.376,4.376,0,0,1,2.5-.8,4.055,4.055,0,0,1,4.1,4.1,4.257,4.257,0,0,1-2,3.5,23.737,23.737,0,1,1-15.3-42,22.384,22.384,0,0,1,13.2,4Zm23.3,35.6c4.1,0,7.6-3.7,7.6-8.7s-3.6-8.3-7.6-8.3c-4.1,0-7.3,3.4-7.3,8.3,0,4.8,3.3,8.7,7.3,8.7Zm9.8,4.2-.2-1.1c-1.8,3.5-7.5,5.1-11.1,5.1-8.6,0-15-7.8-15-17.1,0-9.2,6.5-16.8,15.5-16.8A14.387,14.387,0,0,1,551.1,49l.2-1.1a3.5,3.5,0,0,1,3.5-3.6,3.65,3.65,0,0,1,3.6,3.6V73.7a3.585,3.585,0,0,1-3.6,3.6A3.443,3.443,0,0,1,551.2,73.8Zm32.3-4.2c4.1,0,7.3-3.9,7.3-8.7,0-5-3.3-8.3-7.3-8.3-4.1,0-7.6,3.3-7.6,8.3S579.4,69.6,583.5,69.6Zm-7.6,5.5V86.8a4.6,4.6,0,1,1-9.2,0V48a3.585,3.585,0,0,1,3.6-3.6c2,0,3.5,1.7,3.5,4A14.79,14.79,0,0,1,584.6,44c8.9,0,15.5,7.5,15.5,16.8,0,9.2-6.3,17.1-15,17.1-2.7-.1-6.7-.9-9.2-2.8Z" fill="#fff"/></svg>