<svg xmlns="http://www.w3.org/2000/svg" viewBox="0 0 599.884 158.678"><title>coingecko</title><path d="M247.984,62.3c-1.6-6.4-5.7-11-13.8-11-11.9,0-16.8,10.5-16.8,21.1s5,21.1,16.8,21.1c8.6,0,13.3-6.4,14.1-14.5h9.5c-.8,13.3-10.2,22.4-23.6,22.4-16.6,0-26.5-13.2-26.5-29s9.9-29,26.5-29c12.5.1,22.3,7,23.5,18.9Zm15.6,17.7c0-12.3,7.4-21.1,20.2-21.1s20.2,8.8,20.2,21.1-7.4,21.2-20.2,21.2-20.2-8.9-20.2-21.2Zm31.6,0c0-6.9-3.5-14.1-11.4-14.1s-11.4,7.2-11.4,14.1,3.5,14.2,11.4,14.2,11.4-7.2,11.4-14.2Zm16.4-35.3h8.8v8.4h-8.8Zm0,15.3h8.8v40.1h-8.8Zm18.5,0h8.4v5.9l.2.2a14.23,14.23,0,0,1,12.5-7.1c8.7,0,14.2,4.7,14.2,13.6v27.5h-8.8V74.9c-.2-6.3-2.6-9-7.8-9-5.9,0-9.7,4.6-9.7,10.5v23.7h-8.8V60Zm94.1,40.1h-6.2l-1.5-6.5c-5.2,5.9-9.9,7.8-16.7,7.8-16.6,0-26.5-13.2-26.5-29s9.9-29,26.5-29c12.1,0,22.3,6.4,23.7,18.9h-9.5c-.9-7.3-7.3-11-14.3-11-11.9,0-16.8,10.5-16.8,21.1s5,21.1,16.8,21.1c9.9.2,15.4-5.8,15.5-15.2h-14.7V70.9h23.6Zm16.2-17.8c0,6.3,3.4,11.9,10.8,11.9,5.1,0,8.2-2.2,9.8-6.7h8.4c-1.9,8.8-9.4,13.7-18.2,13.7-12.6,0-19.6-8.8-19.6-21.1,0-11.4,7.5-21.2,19.4-21.2,12.6,0,20.4,11.4,18.9,23.4Zm20.6-5.8c-.3-5.6-4.1-10.6-10.1-10.6-6.1,0-10.3,4.6-10.6,10.6Zm42.7-3.1c-.7-4.9-4.3-7.5-9.2-7.5-4.6,0-11,2.4-11,14.6,0,6.7,2.9,13.7,10.6,13.7,5.1,0,8.7-3.4,9.5-9.2h8.8c-1.6,10.4-8,16.1-18.4,16.1-12.6,0-19.5-8.9-19.5-20.7,0-12.1,6.6-21.6,19.8-21.6,9.3,0,17.2,4.7,18.1,14.5h-8.7Zm16.3-28.7h8.8V76.2l16-16.2h10.9l-15.4,14.7,16.8,25.4h-10.8l-12.3-19.5-5.3,5.1v14.4h-8.8V44.7Zm39.5,35.3c0-12.3,7.4-21.1,20.2-21.1,12.9,0,20.2,8.8,20.2,21.1s-7.4,21.2-20.2,21.2-20.2-8.9-20.2-21.2Zm31.7,0c0-6.9-3.5-14.1-11.4-14.1s-11.4,7.2-11.4,14.1,3.5,14.2,11.4,14.2,11.4-7.2,11.4-14.2Z" fill="#fff"/><path d="M158.584,79a79.3,79.3,0,1,1-79.7-79,79.3,79.3,0,0,1,79.7,79Z" fill="#8dc63f"/><path d="M152.684,79a73.382,73.382,0,1,1-73.8-72.9,73.391,73.391,0,0,1,73.8,72.9Z" fill="#f9e988"/><path d="M80.684,10.8a41.719,41.719,0,0,1,14.1,0,42.987,42.987,0,0,1,13.5,4.5c4.2,2.3,7.8,5.4,11.4,8.3s7.2,5.9,10.6,9.2a52.255,52.255,0,0,1,9,10.9,62.6,62.6,0,0,1,6.3,12.7,57.773,57.773,0,0,1,2.6,27.9h-.5a124.567,124.567,0,0,0-6.9-26.2,102.646,102.646,0,0,0-5.4-12.2,120.79,120.79,0,0,0-7.1-11.4,42.077,42.077,0,0,0-9.6-9.7c-3.7-2.7-8-4.4-12.1-6s-8.3-3.3-12.6-4.6c-4.3-1.2-8.7-2.2-13.3-3.1Z" fill="#fff"/><path d="M116.484,53.1c-5.3-1.5-10.8-3.7-16.4-5.9-.3-1.4-1.6-3.1-4.1-5.3-3.6-3.2-10.5-3.1-16.4-1.7-6.5-1.5-13-2.1-19.2-.6-50.7,14-22,48-40.6,82.3,2.6,5.6,31.2,38.4,72.5,29.6,0,0-14.1-33.9,17.8-50.2,25.9-13.2,44.5-37.8,6.4-48.2Z" fill="#8bc53f"/><path d="M79.584,40.2c3.7.3,17.1,4.6,20.5,7-2.9-8.3-12.5-9.4-20.5-7Z" fill="#009345"/><path d="M122.784,75.4a3.068,3.068,0,0,1-5.2,2.2,3.119,3.119,0,0,1,2.1-5.3,3.183,3.183,0,0,1,3.1,3.1Zm-39.7-14.1a14.338,14.338,0,1,1-4.3-10.2,14.262,14.262,0,0,1,4.3,10.2Z" fill="#fff"/><path d="M78.884,61.4a9.873,9.873,0,0,1-6.2,9.2,10.03,10.03,0,1,1-3.9-19.3,10.2,10.2,0,0,1,10.1,10.1Z" fill="#58595b"/><path d="M134.284,81.7c-11.5,8.1-24.6,14.2-43.1,14.2-8.7,0-10.4-9.2-16.2-4.7-3,2.3-13.4,7.5-21.7,7.2-8.3-.4-21.7-5.3-25.4-22.9-1.5,17.7-2.2,30.7-8.9,45.6,13.2,21.2,44.7,37.5,73.3,30.5-3.1-21.5,15.7-42.5,26.2-53.2,4.1-4.2,11.8-10.8,15.8-16.7Z" fill="#8bc53f"/><path d="M133.784,82.2a50.036,50.036,0,0,1-12.1,7.8,82.075,82.075,0,0,1-13.6,5,44.365,44.365,0,0,1-14.5,1.7c-5-.4-10-2.1-13.3-5.8l.2-.2c4,2.6,8.7,3.5,13.3,3.7a65.614,65.614,0,0,0,14-1.1,82.172,82.172,0,0,0,13.6-4.2,50.942,50.942,0,0,0,12.5-6.9Z" fill="#58595b"/></svg>