<svg xmlns="http://www.w3.org/2000/svg" viewBox="0 0 1640.4 500.1"><title>gateio</title><path d="M195.9,246.2l-4.3-4.4a5.2,5.2,0,0,0-8.9,3.7v62.3a5.228,5.228,0,0,0,5.2,5.2h62.3a5.222,5.222,0,0,0,3.7-8.9,5.313,5.313,0,0,1,0-7.4l66.2-66.4a5.313,5.313,0,0,0,0-7.4l-6-6a5.222,5.222,0,0,1,3.7-8.9H380a5.164,5.164,0,0,1,5.2,5.2v62.3a5.222,5.222,0,0,1-8.9,3.7l-4.2-4.2a5.134,5.134,0,0,0-7.4,0L253,386.6a5.313,5.313,0,0,1-7.4,0L109,249.9a5.22,5.22,0,0,1,0-7.4h0L298.1,53.4a5.313,5.313,0,0,0,0-7.4L253.6,1.5a5.313,5.313,0,0,0-7.4,0L1.5,246.4a5.313,5.313,0,0,0,0,7.4L246.3,498.6a5.313,5.313,0,0,0,7.4,0L498.5,253.8a5.313,5.313,0,0,0,0-7.4l-144-144a5.313,5.313,0,0,0-7.4,0L203.3,246.2a5.313,5.313,0,0,1-7.4,0Zm1130,61.9a23.221,23.221,0,0,0-23.1,22.9c0,9.5,4.8,16.9,14.4,22.1,10.5,2.9,18.9,1,25.2-5.5a22.421,22.421,0,0,0,6.8-16.5,21.885,21.885,0,0,0-6.8-16.3,22.96,22.96,0,0,0-16.5-6.7Zm-372-176H936.6a13.444,13.444,0,0,0-13.5,13.5v9.6c-18.4-19.1-39.1-28.6-62.4-28.6-26.8,0-49.2,10-67,29.9q-26.85,29.85-26.8,74.6c0,30.4,8.9,55.7,26.7,76.1q27,29.85,68.3,29.9,32.7,0,61.1-26.6v19a16.816,16.816,0,0,0,16.7,16.8h29.5V147.6A15.343,15.343,0,0,0,953.9,132.1ZM910.3,278.3C899.8,290,886,295.9,869,295.9c-16,0-29.2-6.1-39.7-18.2-10.2-12-15.4-27.6-15.4-46.6,0-17.8,5.3-32.9,15.8-45,10.6-12,23.9-18,39.7-18,16.8,0,30.4,5.9,40.9,17.8q15.75,18.15,15.8,46.2-.15,28.05-15.8,46.2ZM766.9,165.7V146A13.87,13.87,0,0,0,753,132.1H734.8A13.87,13.87,0,0,0,720.9,146v8.6q-24.9-28.05-62.6-28.1c-28.6,0-51.7,10.8-69.1,32.3q-24.3,30.45-24.3,74,0,44.85,26.2,74.6c17.3,19.7,39.5,29.4,66.7,29.4q35.7,0,63.2-28v27.8q0,61.95-50.5,62-27.45,0-41.7-18.6a40.821,40.821,0,0,1-6.1-11.8,16.258,16.258,0,0,0-15.4-10.9H589.9a13.57,13.57,0,0,0-13.1,16.9q7.2,27.15,27.7,44.2,25.8,21.45,65.6,21.5,47.25,0,74.2-31.1a85.2,85.2,0,0,0,19.2-38.7,166.343,166.343,0,0,0,2.6-18.9c.6-7.1.9-15.4.9-24.8V297.5c-12.9-18.6-19.4-40.7-19.4-66.6-.1-25.2,6.4-46.9,19.3-65.2Zm-58.3,111q-15.3,19.2-41.7,19.2t-41.3-19c-9.1-11.6-13.7-26.4-13.7-44.6,0-18.4,4.6-33.4,13.7-45q15.15-19.35,41.3-19.4c16.4,0,29.8,5.9,40.3,17.8q15.6,17.4,15.6,46.4c-.1,18.1-4.8,33-14.2,44.6Zm440.8-144.4v-.2H1054V73.7a13.614,13.614,0,0,0-13.6-13.6h-18.6A13.828,13.828,0,0,0,1008,73.9v58.2H988.4V175H1008V346.1h26.2a19.824,19.824,0,0,0,19.8-19.7V175.1h47.2a98.743,98.743,0,0,1,13.6-19.7,83.855,83.855,0,0,1,34.6-23.1Zm234.8-72.2a28.327,28.327,0,0,0-21,8.8,28.812,28.812,0,0,0-8.8,20.9,30.047,30.047,0,0,0,30.1,30.3,28.016,28.016,0,0,0,21-8.8,28.832,28.832,0,0,0,8.8-21.3,28.016,28.016,0,0,0-8.8-21A28.7,28.7,0,0,0,1384.2,60.1Zm9.3,94.6h-16.7a15.45,15.45,0,0,0-15.5,15.5V316.3a21.778,21.778,0,0,1,5.2,14.6,22.038,22.038,0,0,1-5.2,14.7v8.2h29.6a16.41,16.41,0,0,0,16.4-16.4v-169a13.742,13.742,0,0,0-13.8-13.7Zm216.3,28.2c-20.7-20.3-46-30.5-75.7-30.5q-44.4,0-75.3,30.3c-20.6,20.2-30.9,44.6-30.9,73.4q0,45.75,30.3,76.1c20.2,20.4,45.2,30.7,75,30.7,30.1,0,55.6-10,76.3-30.1,20.5-20.2,30.9-45.2,30.9-75.1q0-44.4-30.6-74.8Zm-32.6,121.5c-10.7,11.6-25.1,17.3-43.1,17.3-17.9,0-32.3-5.8-43.2-17.6-10.6-11.6-16-27.4-16-47.2,0-18.5,5.5-33.7,16.4-45.4s25.1-17.6,42.7-17.6q26.7,0,43.1,17.6,16.2,17.4,16.2,46.4c.1,19.4-5.3,34.8-16.1,46.5Z" fill="#de5959"/><path d="M1166.5,296.3c-9.5-9.6-14.8-22.7-16-39h131.9a11.079,11.079,0,0,0,11.1-10.8c0-32.9-8.5-58.6-25.3-77.1q-25.65-28.05-69.6-28-43.5,0-69.9,28.8-26.25,29.25-26.2,76.5,0,47.7,27,76.5a87.7,87.7,0,0,0,46.2,26,98.155,98.155,0,0,0,23.6,2.6c32.8.7,61.3,1.4,94,2V349a22.493,22.493,0,0,1-6-15.7,21.933,21.933,0,0,1,6.2-15.5V312c-25.9-.6-88.5-1.3-91-1.3-14.5,0-26.6-4.8-36-14.4Zm-6.4-92a47.412,47.412,0,0,1,10.3-11.5,45.007,45.007,0,0,1,13.4-7.4,48.035,48.035,0,0,1,15.8-2.6q36.75,0,46.4,36.8h-92.5a58.931,58.931,0,0,1,6.6-15.3Z" fill="#de5959"/></svg>