<svg xmlns="http://www.w3.org/2000/svg" viewBox="0 0 285.9 519.962"><title>laurel</title><path d="M133.4,270l-.009.046C133.409,270.03,133.413,270.015,133.4,270Z" fill="#fff"/><path d="M285.778,461.82a3.993,3.993,0,0,0-4.156-3c-1.164-12.736-7.033-52.6-35.422-68.218.1,0-32.866,33.734,30.05,69.145-7.657,1.054-24.195,2.177-45.621-3.006-4.144-1-8.6-2.287-13.311-3.907,2.672-11.285,9.825-50.425-11.018-79.232.864,0-35.837,33.621,4.7,76.9a182.339,182.339,0,0,1-45.115-26.065c7.345-6.538,21.984-26.767,8.219-78.039,0,0-43.867,23.039-19.76,68.411a262.54,262.54,0,0,1-32.022-34.493c6.042-1.9,16.946-7.384,22.882-22.818,4.2-10.2,5.1-26.3,5.1-45.9,0,0-23.8.8-34.8,21.2-4.192,7.756-8.716,17.567-5.882,30.311a348.259,348.259,0,0,1-21.057-34.053c10.544-3.6,36.739-16.669,44.83-59.012-.993.882-49.129,3.829-49.976,49.011A245.964,245.964,0,0,1,66.5,274.928c7.873-1.312,55.742-10.744,65.1-47.428,0,.1-48.915-12.389-65.609,45.5-1.48-5.7-2.58-10.933-3.379-15.656-4.87-28.763-.218-45.459-.174-45.613.018-.061.035-.123.049-.184,0-.01.019-.074.041-.163,15.355,2.746,71.1,9.8,83.572-29.68,0,0-38-24.781-81.291,21.769a287.17,287.17,0,0,1,19.3-46.43c.626-1.2,1.282-2.42,1.951-3.654,43.886,20.4,83.738-4.785,83.738-4.785-33.689-31.144-65.471-13.751-79.321-3.04a235.68,235.68,0,0,1,30.061-40.82c36.482,32.288,79.355,7.66,79.16,7.66-28.011-28.068-50.779-27.207-65.1-21.381a167.3,167.3,0,0,1,28.654-20.43l6.925-3.882C237.716,61.553,236.9,7.6,236.9,7.7c-63.483,2.792-73.681,41.054-75.3,54.646l-2.256,1.265a176.584,176.584,0,0,0-32.63,23.734C135.825,70.557,145.9,38.7,123.1,0c0,0-51.562,66.316-7.631,98.447a238.8,238.8,0,0,0-28.156,36.9C90.652,115.56,91.24,82.254,65.4,58.6c0,0-42.087,59.819,13.539,91.139-.693,1.279-1.371,2.547-2.019,3.788a299.838,299.838,0,0,0-15.232,34.28c-.863-16.916-8.95-39.913-41.288-57.007,0-.1-20.265,57.574,34.416,78.444-.035.14-.065.259-.083.332-.4,1.425-3.951,14.941-1.511,38.176C43.2,230.2,26.689,210.014,2.6,206.3c-.1,0-15.948,60.583,55.525,68.224a251.514,251.514,0,0,0,18.082,48C60.472,307.763,24.588,277.941,0,287c0,0,14.827,73.26,80.92,44.733a366.937,366.937,0,0,0,30.094,46.981c-15.3-5.73-27.634-10.755-37.914-14.414-24.7-8.5-47.6,0-47.6,0s.8,12.7,19.4,27.2c15.3,11,37.4,11.9,49.3,10.2a27.841,27.841,0,0,0,22.149-16.031,266.015,266.015,0,0,0,36.666,38.6C91.569,406.871,73,433.9,73,433.9c44.552,43.777,78.45,7.223,87.065-3.865a193.4,193.4,0,0,0,43.318,25.984C121.639,457.808,131.6,491.605,131.6,491.7c63.368,15.986,79.893-18.223,83.792-31.076,4.714,1.6,9.187,2.882,13.356,3.891a143.145,143.145,0,0,0,33.587,4.141c1.462,0,2.85-.027,4.173-.072C204.279,493.828,207.2,518,207.2,518c59.906,12.236,71.938-36.171,74.2-51,.844-.169,1.356-.294,1.478-.324A4,4,0,0,0,285.778,461.82Z" fill="#fff"/></svg>