<svg xmlns="http://www.w3.org/2000/svg" viewBox="0 0 286.029 519.962"><title>laurel</title><path d="M286,287c-24.682-9.094-60.75,20.994-76.39,35.692a251.769,251.769,0,0,0,18.144-48.087c71.7-7.253,55.668-68.305,56.446-68.305-25.014,3.857-41.853,25.472-51.746,43.46,2.868-24.464-.875-38.72-1.287-40.185-.017-.07-.045-.18-.078-.311C286.643,188.41,265.6,130.7,265.5,130.8c-32.338,17.094-40.425,40.091-41.288,57.007a299.838,299.838,0,0,0-15.232-34.28c-.586-1.124-1.2-2.269-1.821-3.424,55.8-31.218,14.241-91.5,14.241-91.5-26.748,24.485-25.178,59.315-21.553,78.785A240.592,240.592,0,0,0,170.755,98.8C215.541,66.8,163.6,0,163.6,0c-23.5,39.885-12.077,72.5-2.781,88.844a177.45,177.45,0,0,0-34.263-25.233c-.474-.267-.934-.524-1.4-.786C123.719,49.677,114.042,10.526,49.8,7.7c.1-.1-1.445,53.421,65.811,58.946l7.033,3.943A166.877,166.877,0,0,1,150.5,90.32c-14.349-5.2-36.4-4.981-63.3,21.98,0,0,42.3,24.406,78.476-7.219A235.1,235.1,0,0,1,194.7,144.339c-14.6-10.718-45.264-25.723-77.7,4.261-.1,0,38.591,24.932,83,5.092.611,1.129,1.21,2.248,1.784,3.346a287.168,287.168,0,0,1,19.3,46.429C177.808,156.919,139.9,181.7,139.8,181.7c12.471,39.478,68.215,32.426,83.571,29.68.022.088.038.153.041.163.016.061.032.123.05.183.11.377,6.117,22.26-3.192,59.646C202.33,215.349,155.2,227.6,155.2,227.5c9.047,35.477,54.115,45.465,64.193,47.271a242.837,242.837,0,0,1-16.653,43.821c-.554-45.544-50.14-47.758-50.14-48.592,8.062,42.289,34.177,55.4,44.77,59.034a345.5,345.5,0,0,1-20.14,32.722c2.056-12.088-2.526-21.477-6.03-28.956-11-20.4-34.8-21.2-34.8-21.2,0,19.6.9,35.7,5.1,45.9,5.733,14.907,16.1,20.527,22.247,22.609a263.141,263.141,0,0,1-31.806,34.358c24.39-45.144-19.315-68.067-20.141-68.067-13.766,51.273.875,71.5,8.219,78.04a182.456,182.456,0,0,1-44.945,26C116.3,407.186,79.6,373.6,79.6,373.6c-20.842,28.806-13.69,67.944-11.019,79.23-4.532,1.56-8.83,2.81-12.831,3.792-21.5,5.279-38.259,4.172-46.033,3.121C73.326,424.333,39.7,390.6,39.7,390.6,11.311,406.214,5.442,446.082,4.278,458.818a4,4,0,0,0-1.258,7.86c.122.031.634.155,1.478.324,2.264,14.828,14.3,63.234,74.2,51,.836,0,3.04-24.172-59.294-49.415,1.319.044,2.7.071,4.157.071a143.2,143.2,0,0,0,33.589-4.141c4.169-1.009,8.642-2.291,13.356-3.89,3.9,12.852,20.424,47.06,83.792,31.075.857-.095,10.044-33.894-71.782-35.681a193.459,193.459,0,0,0,43.317-25.984c8.614,11.087,42.513,47.643,87.065,3.865,0,0-17.783-27.077-80.072-9.583a266.479,266.479,0,0,0,37.227-39.288A27.9,27.9,0,0,0,192.5,401.7c11.9,1.7,34,.8,49.3-10.2,18.7-13.6,19.5-27.2,19.5-27.2s-22.9-8.5-47.6,0c-10.471,3.727-23.7,8.873-39.058,14.736a367.5,367.5,0,0,0,30.364-47.352C271.956,360.338,286.788,287,286,287Z" fill="#f60"/></svg>