<svg xmlns="http://www.w3.org/2000/svg" viewBox="0 0 128 170"><defs><linearGradient id="a" x1="64" y1="168.3" x2="64" y2=".6" gradientUnits="userSpaceOnUse"><stop offset="0" stop-color="#f80"/><stop offset="1" stop-color="#f60"/></linearGradient></defs><path d="M62.6 168.3q64.8-70.2 64.9-104.9C127.5 28.7 99.1.6 64 .6S.5 28.8.5 63.5q0 34.65 62.1 104.8Z" fill="url(#a)"/><path d="M64 1.6c34.463 0 62.5 27.723 62.5 61.8 0 22.561-21.493 57.35-63.884 103.407C22.062 120.827 1.5 86.072 1.5 63.5 1.5 29.368 29.537 1.6 64 1.6m0-1C28.9.6.5 28.8.5 63.5q0 34.65 62.1 104.8 64.8-70.2 64.9-104.9C127.5 28.7 99.1.6 64 .6Z" fill="#fd4800"/></svg>